<mxfile host="app.diagrams.net" agent="Mozilla/5.0 (X11; Ubuntu; Linux x86_64; rv:139.0) Gecko/20100101 Firefox/139.0" version="27.1.6">
  <diagram name="Page-1" id="POaLV1qd_8ivgcaJ0k6t">
    <mxGraphModel dx="2206" dy="1821" grid="1" gridSize="10" guides="1" tooltips="1" connect="1" arrows="1" fold="1" page="1" pageScale="1" pageWidth="850" pageHeight="1100" math="0" shadow="0">
      <root>
        <mxCell id="0" />
        <mxCell id="1" parent="0" />
        <mxCell id="8z2NHTdnz_yu78FJvaMC-28" value="" style="rounded=1;whiteSpace=wrap;html=1;strokeColor=none;strokeWidth=3;align=center;verticalAlign=middle;fontFamily=Helvetica;fontSize=12;fontColor=default;fillColor=#142037;" vertex="1" parent="1">
          <mxGeometry x="-20" y="-90" width="1030" height="510" as="geometry" />
        </mxCell>
        <mxCell id="8z2NHTdnz_yu78FJvaMC-2" value="&lt;font style=&quot;font-size: 23px;&quot;&gt;I&#39;m having an issue with the GoPro Hero. It&#39;s affecting my productivity.&lt;/font&gt;" style="rounded=1;whiteSpace=wrap;html=1;strokeColor=#22D234;fillColor=#A2D2A4;strokeWidth=3;" vertex="1" parent="1">
          <mxGeometry x="212.5" y="110" width="740" height="50" as="geometry" />
        </mxCell>
        <mxCell id="8z2NHTdnz_yu78FJvaMC-16" value="&lt;font style=&quot;font-size: 23px;&quot;&gt;1&lt;/font&gt;" style="rounded=1;whiteSpace=wrap;html=1;strokeColor=#22D234;fillColor=#A2D2A4;strokeWidth=3;" vertex="1" parent="1">
          <mxGeometry x="30" y="110" width="170" height="50" as="geometry" />
        </mxCell>
        <mxCell id="8z2NHTdnz_yu78FJvaMC-19" style="edgeStyle=orthogonalEdgeStyle;rounded=0;orthogonalLoop=1;jettySize=auto;html=1;exitX=0.5;exitY=1;exitDx=0;exitDy=0;" edge="1" parent="1">
          <mxGeometry relative="1" as="geometry">
            <mxPoint x="250" y="80" as="sourcePoint" />
            <mxPoint x="250" y="80" as="targetPoint" />
          </mxGeometry>
        </mxCell>
        <mxCell id="8z2NHTdnz_yu78FJvaMC-24" value="TEXT_DOC_ID" style="text;html=1;align=center;verticalAlign=middle;resizable=0;points=[];autosize=1;strokeColor=none;fillColor=none;fontSize=23;fontColor=#B3B3B3;" vertex="1" parent="1">
          <mxGeometry x="20" y="60" width="180" height="40" as="geometry" />
        </mxCell>
        <mxCell id="8z2NHTdnz_yu78FJvaMC-25" value="&lt;font style=&quot;font-size: 23px; color: rgb(179, 179, 179);&quot;&gt;TEXT&lt;/font&gt;" style="text;html=1;align=center;verticalAlign=middle;resizable=0;points=[];autosize=1;strokeColor=none;fillColor=none;fontFamily=Helvetica;fontSize=12;fontColor=default;" vertex="1" parent="1">
          <mxGeometry x="210" y="60" width="80" height="40" as="geometry" />
        </mxCell>
        <mxCell id="8z2NHTdnz_yu78FJvaMC-26" value="" style="strokeWidth=2;html=1;shape=mxgraph.flowchart.annotation_2;align=left;labelPosition=right;pointerEvents=1;rounded=1;strokeColor=#22D234;verticalAlign=middle;fontFamily=Helvetica;fontSize=12;fontColor=default;fillColor=#A2D2A4;direction=north;" vertex="1" parent="1">
          <mxGeometry x="212.5" y="260" width="737.5" height="50" as="geometry" />
        </mxCell>
        <mxCell id="8z2NHTdnz_yu78FJvaMC-30" value="&lt;font style=&quot;font-size: 23px;&quot;&gt;Topic: Urgent&lt;/font&gt;" style="rounded=1;whiteSpace=wrap;html=1;strokeColor=#22D234;strokeWidth=3;align=center;verticalAlign=middle;fontFamily=Helvetica;fontSize=12;fontColor=default;fillColor=#A2D2A4;" vertex="1" parent="1">
          <mxGeometry x="486.25" y="320" width="190" height="60" as="geometry" />
        </mxCell>
        <mxCell id="8z2NHTdnz_yu78FJvaMC-31" value="" style="strokeWidth=2;html=1;shape=mxgraph.flowchart.annotation_2;align=left;labelPosition=right;pointerEvents=1;rounded=1;strokeColor=#22D234;verticalAlign=middle;fontFamily=Helvetica;fontSize=12;fontColor=default;fillColor=#A2D2A4;direction=south;" vertex="1" parent="1">
          <mxGeometry x="510" y="50" width="130" height="50" as="geometry" />
        </mxCell>
        <mxCell id="8z2NHTdnz_yu78FJvaMC-32" value="&lt;font style=&quot;font-size: 23px;&quot;&gt;Named Entity&lt;/font&gt;" style="rounded=1;whiteSpace=wrap;html=1;strokeColor=#22D234;strokeWidth=3;align=center;verticalAlign=middle;fontFamily=Helvetica;fontSize=12;fontColor=default;fillColor=#A2D2A4;" vertex="1" parent="1">
          <mxGeometry x="486.25" y="-50" width="170" height="60" as="geometry" />
        </mxCell>
        <mxCell id="8z2NHTdnz_yu78FJvaMC-33" value="" style="strokeWidth=2;html=1;shape=mxgraph.flowchart.annotation_2;align=left;labelPosition=right;pointerEvents=1;rounded=1;strokeColor=#22D234;verticalAlign=middle;fontFamily=Helvetica;fontSize=12;fontColor=default;fillColor=#A2D2A4;direction=south;" vertex="1" parent="1">
          <mxGeometry x="810" y="50" width="130" height="50" as="geometry" />
        </mxCell>
        <mxCell id="8z2NHTdnz_yu78FJvaMC-34" value="&lt;font style=&quot;font-size: 23px;&quot;&gt;Keyword&lt;/font&gt;" style="rounded=1;whiteSpace=wrap;html=1;strokeColor=#22D234;strokeWidth=3;align=center;verticalAlign=middle;fontFamily=Helvetica;fontSize=12;fontColor=default;fillColor=#A2D2A4;" vertex="1" parent="1">
          <mxGeometry x="810" y="-50" width="120" height="60" as="geometry" />
        </mxCell>
        <mxCell id="8z2NHTdnz_yu78FJvaMC-35" value="&lt;font style=&quot;font-size: 23px; color: rgb(179, 179, 179);&quot;&gt;Entity Type: Product&lt;/font&gt;" style="text;html=1;align=center;verticalAlign=middle;resizable=0;points=[];autosize=1;strokeColor=none;fillColor=none;fontFamily=Helvetica;fontSize=12;fontColor=default;" vertex="1" parent="1">
          <mxGeometry x="456.25" y="10" width="230" height="40" as="geometry" />
        </mxCell>
        <mxCell id="8z2NHTdnz_yu78FJvaMC-36" value="" style="strokeWidth=2;html=1;shape=mxgraph.flowchart.annotation_2;align=left;labelPosition=right;pointerEvents=1;rounded=1;strokeColor=#22D234;verticalAlign=middle;fontFamily=Helvetica;fontSize=12;fontColor=default;fillColor=#A2D2A4;direction=north;" vertex="1" parent="1">
          <mxGeometry x="212.5" y="170" width="737.5" height="50" as="geometry" />
        </mxCell>
        <mxCell id="8z2NHTdnz_yu78FJvaMC-37" value="&lt;span style=&quot;color: rgb(179, 179, 179);&quot;&gt;&lt;font style=&quot;font-size: 23px;&quot;&gt;Document&lt;/font&gt;&lt;/span&gt;" style="text;html=1;align=center;verticalAlign=middle;resizable=0;points=[];autosize=1;strokeColor=none;fillColor=none;fontFamily=Helvetica;fontSize=12;fontColor=default;" vertex="1" parent="1">
          <mxGeometry x="516.25" y="220" width="130" height="40" as="geometry" />
        </mxCell>
      </root>
    </mxGraphModel>
  </diagram>
</mxfile>
